<svg fill="none" height="60" viewBox="0 0 57 60" width="57" xmlns="http://www.w3.org/2000/svg"><path d="m32.1775 21.2905h23.9032v4.8387h-23.9032z" fill="#54a45b"/><path d="m29.4194 48.3869h-25.74191v-38.70965h25.74191z" fill="#54a45b"/><g fill="#000"><path d="m13.7903 54.1934h5.5161v1.9354h-5.5161z"/><path d="m14.0718 38.2043 11.1009-14.5993-4.0558-3.7046-7.4047 9.7374-2.064-2.2615-3.72999 4.0845zm-.2339-5.6363 7.5196-9.8872 1.2771 1.1662-8.6881 11.4253-3.4767-3.8115 1.1793-1.2928z"/><path d="m54.2419 16.4516h-21.1451v-11.61289c0-2.66791-2.0623-4.83871-4.5968-4.83871h-23.90323c-2.53451 0-4.59677 2.1708-4.59677 4.83871v50.32259c0 2.6679 2.06226 4.8387 4.59677 4.8387h23.90323c2.5345 0 4.5968-2.1708 4.5968-4.8387v-13.5484h21.1451c1.5205 0 2.7581-1.3028 2.7581-2.9032v-19.3549c0-1.6004-1.2376-2.9032-2.7581-2.9032zm0 1.9355c.5073 0 .9194.4347.9194.9677v.9678h-22.0645v-1.9355zm-49.64513-16.45162h23.90323c1.5204 0 2.7581 1.30277 2.7581 2.90323v.96774h-29.41939v-.96774c0-1.60046 1.23763-2.90323 2.75806-2.90323zm26.66133 5.80646v42.58066h-29.41939v-42.58066zm-2.7581 50.32256h-23.90323c-1.52043 0-2.75806-1.3028-2.75806-2.9032v-2.9032h29.41939v2.9032c0 1.6004-1.2377 2.9032-2.7581 2.9032zm25.7419-18.3871h-21.1451v-17.4193h22.0645v1.9354h-1.8387v1.9355h1.8387v12.5807c0 .533-.4121.9677-.9194.9677z"/><path d="m49.6451 30c-.6482 0-1.2816.1838-1.8387.5273-.5571-.3435-1.1905-.5273-1.8387-.5273-2.0281 0-3.6774 1.7361-3.6774 3.871s1.6493 3.8709 3.6774 3.8709c.6482 0 1.2816-.1838 1.8387-.5273.5571.3435 1.1905.5273 1.8387.5273 2.0282 0 3.6774-1.736 3.6774-3.8709s-1.6492-3.871-3.6774-3.871zm0 5.8065c-.4457 0-.8798-.1791-1.2237-.5042l-.615-.5836-.615.5836c-.3438.3251-.7779.5042-1.2237.5042-1.0141 0-1.8387-.8681-1.8387-1.9355 0-1.0675.8246-1.9355 1.8387-1.9355.4458 0 .8799.1791 1.2237.5042l.615.5835.615-.5835c.3439-.3251.778-.5042 1.2237-.5042 1.0141 0 1.8387.868 1.8387 1.9355 0 1.0674-.8246 1.9355-1.8387 1.9355z"/><path d="m49.6453 24.1934h1.8387v1.9354h-1.8387z"/><path d="m45.9678 24.1934h1.8387v1.9354h-1.8387z"/><path d="m42.2903 24.1934h1.8387v1.9354h-1.8387z"/><path d="m38.6128 24.1934h1.8387v1.9354h-1.8387z"/><path d="m34.9355 24.1934h1.8388v1.9354h-1.8388z"/></g></svg>