<svg fill="none" height="60" viewBox="0 0 60 60" width="60" xmlns="http://www.w3.org/2000/svg"><path d="m14.5161 13.5479c-8.00416 0-14.5161 6.5119-14.5161 14.5161 0 6.1819 3.89129 11.459 9.34742 13.5484h10.33648c5.4571-2.0894 9.3484-7.3665 9.3484-13.5484 0-8.0042-6.512-14.5161-14.5162-14.5161zm0 24.1935c-5.3361 0-9.67739-4.3413-9.67739-9.6774s4.34129-9.6774 9.67739-9.6774c5.3362 0 9.6774 4.3413 9.6774 9.6774s-4.3412 9.6774-9.6774 9.6774z" fill="#54a45b"/><path d="m42.5806 43.5483v3.871h3.8709v4.8387h9.6775v-8.7097z" fill="#54a45b"/><g fill="#000"><path d="m41.613 52.2579h-15.4838c-.4597 0-.8894.1171-1.2765.3087.1916-.3871.3087-.8167.3087-1.2764v-1.9355c0-.7461-.2913-1.4206-.7548-1.9355.4645-.5148.7548-1.1893.7548-1.9355v-1.9355c0-1.6006-1.3026-2.9032-2.9032-2.9032h-15.48388c-1.60065 0-2.90323 1.3026-2.90323 2.9032v1.9355c0 .7462.29129 1.4207.75484 1.9355-.46355.5149-.75484 1.1894-.75484 1.9355v1.9355c0 .7461.29129 1.4206.75484 1.9355-.46355.5148-.75484 1.1893-.75484 1.9354v1.9355c0 1.6007 1.30258 2.9033 2.90323 2.9033h15.48388c.7461 0 1.4206-.2913 1.9355-.7549.5148.4645 1.1893.7549 1.9355.7549h15.4838c1.6007 0 2.9033-1.3026 2.9033-2.9033v-1.9355c0-1.6006-1.3026-2.9032-2.9033-2.9032zm-34.83868 0c-.53323 0-.96774-.4335-.96774-.9677v-1.9355c0-.5342.43451-.9677.96774-.9677h.96774v1.9354h1.93549v-1.9354h1.93545v1.9354h1.9355v-1.9354h1.9355v1.9354h1.9355v-1.9354h1.9355v1.9354h1.9354v-1.9354h.9678c.5332 0 .9677.4335.9677.9677v1.9355c0 .5342-.4345.9677-.9677.9677zm-.96774-8.7097c0-.5341.43451-.9677.96774-.9677h.96774v1.9355h1.93549v-1.9355h1.93545v1.9355h1.9355v-1.9355h1.9355v1.9355h1.9355v-1.9355h1.9355v1.9355h1.9354v-1.9355h.9678c.5332 0 .9677.4336.9677.9677v1.9355c0 .5342-.4345.9678-.9677.9678h-15.48388c-.53323 0-.96774-.4336-.96774-.9678zm16.45162 14.5162h-15.48388c-.53323 0-.96774-.4336-.96774-.9678v-1.9355c0-.5341.43451-.9677.96774-.9677h.96774v1.9355h1.93549v-1.9355h1.93545v1.9355h1.9355v-1.9355h1.9355v1.9355h1.9355v-1.9355h1.9355v1.9355h1.9354v-1.9355h.9678c.5332 0 .9677.4336.9677.9677v1.9355c0 .5342-.4345.9678-.9677.9678zm20.3226-.9678c0 .5342-.4345.9678-.9678.9678h-15.4838c-.5333 0-.9678-.4336-.9678-.9678v-1.9355c0-.5341.4345-.9677.9678-.9677h.9677v1.9355h1.9355v-1.9355h1.9355v1.9355h1.9355v-1.9355h1.9354v1.9355h1.9355v-1.9355h1.9355v1.9355h1.9355v-1.9355h.9677c.5333 0 .9678.4336.9678.9677z"/><path d="m13.5485 30.9679c-.5332 0-.9678-.4345-.9678-.9677h-1.9354c0 1.6007 1.3025 2.9032 2.9032 2.9032v1.9355h1.9355v-1.9355h2.9032v-2.9032c0-1.6006-1.3026-2.9032-2.9032-2.9032h-1.9355c-.5332 0-.9678-.4345-.9678-.9678v-.9677h2.9033c.5332 0 .9677.4345.9677.9677h1.9355c0-1.6006-1.3026-2.9032-2.9032-2.9032v-1.9355h-1.9355v1.9355h-2.9032v2.9032c0 1.6007 1.3025 2.9033 2.9032 2.9033h1.9355c.5332 0 .9677.4345.9677.9677v.9677z"/><path d="m39.6776 1.93548c10.139 0 18.3871 8.24802 18.3871 18.38712 0 10.139-8.2481 18.3871-18.3871 18.3871-4.4313 0-8.6642-1.6103-12.0155-4.5213-.2806.598-.6019 1.1739-.959 1.7245 3.6551 3.0474 8.2093 4.7323 12.9745 4.7323 11.2064 0 20.3226-9.1171 20.3226-20.3226 0-11.20647-9.1162-20.3226-20.3226-20.3226-9.1665 0-17.0139 5.98935-19.5029 14.6971.6116.2594 1.1922.5729 1.7574.9106 2.131-8.0806 9.3213-13.67222 17.7455-13.67222z"/><path d="m14.5163 38.7098c5.8693 0 10.6451-4.7759 10.6451-10.6452 0-5.8694-4.7758-10.6452-10.6451-10.6452-5.8694 0-10.64521 4.7758-10.64521 10.6452 0 5.8693 4.77581 10.6452 10.64521 10.6452zm0-19.3549c4.8019 0 8.7096 3.9078 8.7096 8.7097 0 4.8029-3.9077 8.7097-8.7096 8.7097-4.80198 0-8.70972-3.9068-8.70972-8.7097 0-4.8019 3.90774-8.7097 8.70972-8.7097z"/><path d="m24.422 14.1532 1.7942.7258c1.7216-4.2532 5.3971-7.47387 9.8322-8.6158l-.4838-1.87355c-5.0255 1.29387-9.1916 4.94419-11.1426 9.76355z"/><path d="m37.8621 5.91884c.5971-.07452 1.2077-.11226 1.8155-.11226v-1.93549c-.6881 0-1.38.04258-2.0555.12775z"/><path d="m56.1292 20.3223h-1.9355c0 5.1658-2.7813 9.9842-7.258 12.5748l.9696 1.6742c5.0729-2.9342 8.2239-8.3942 8.2239-14.249z"/><path d="m43.7905 36.2563c.6987-.181 1.3907-.4084 2.0574-.6784l-.7267-1.7942c-.5875.2371-1.1971.4384-1.8136.5971z"/><path d="m39.6776 36.7743c.6881 0 1.38-.0426 2.0555-.1277l-.24-1.92c-.5971.0745-1.2077.1122-1.8155.1122z"/><path d="m48.3872 25.1615c0-2.1348-1.7361-3.871-3.871-3.871-2.1348 0-3.8709 1.7362-3.8709 3.871s1.7361 3.871 3.8709 3.871c2.1349 0 3.871-1.7362 3.871-3.871zm-3.871 1.9355c-1.0674 0-1.9355-.8681-1.9355-1.9355s.8681-1.9355 1.9355-1.9355c1.0675 0 1.9355.8681 1.9355 1.9355s-.868 1.9355-1.9355 1.9355z"/><path d="m34.8387 11.6128c-2.1348 0-3.8709 1.7361-3.8709 3.871 0 2.1348 1.7361 3.8709 3.8709 3.8709 2.1349 0 3.871-1.7361 3.871-3.8709 0-2.1349-1.7361-3.871-3.871-3.871zm0 5.8064c-1.0674 0-1.9354-.868-1.9354-1.9354 0-1.0675.868-1.9355 1.9354-1.9355 1.0675 0 1.9355.868 1.9355 1.9355 0 1.0674-.868 1.9354-1.9355 1.9354z"/><path d="m29.3107 29.3164 19.3517-19.35172 1.3684 1.36842-19.3517 19.3517z"/><path d="m42.5808 42.5806h13.5484v1.9355h-13.5484z"/><path d="m42.5808 46.4517h13.5484v1.9354h-13.5484z"/><path d="m50.3226 50.3228h1.9355v1.9354h-1.9355z"/><path d="m46.4518 50.3228h1.9355v1.9354h-1.9355z"/><path d="m54.1938 50.3228h1.9355v1.9354h-1.9355z"/></g></svg>