<svg fill="none" height="60" viewBox="0 0 60 60" width="60" xmlns="http://www.w3.org/2000/svg"><path d="m44.2897 33.0411h-5.7769v-2.9086c-1.1997-.9041-1.9256-2.3262-1.9256-3.8311 0-2.6545 2.1596-4.8141 4.8141-4.8141 2.6544 0 4.8141 2.1596 4.8141 4.8141 0 1.5049-.726 2.9279-1.9257 3.8311z" fill="#54a45b"/><path d="m11.5539 46.5205c-3.71644 0-6.73969-3.0233-6.73969-6.7398 0-3.7164 3.02325-6.7397 6.73969-6.7397 3.7165 0 6.7398 3.0233 6.7398 6.7397 0 3.7165-3.0233 6.7398-6.7398 6.7398z" fill="#54a45b"/><g fill="#000"><path d="m49.1039 18.0441v-4.2595c0-4.24701-3.4556-7.70257-7.7026-7.70257s-7.7025 3.45556-7.7025 7.70257v4.2595c-1.6975.7452-2.8885 2.4369-2.8885 4.4059v9.6281c0 2.6545 2.1596 4.8141 4.8141 4.8141h11.5538c2.6545 0 4.8141-2.1596 4.8141-4.8141v-9.6281c0-1.969-1.191-3.6607-2.8884-4.4059zm-13.4795-4.2595c0-3.186 2.5909-5.77693 5.7769-5.77693s5.7769 2.59093 5.7769 5.77693v3.8513h-1.9256v-3.8513c0-2.124-1.7273-3.85129-3.8513-3.85129s-3.8513 1.72729-3.8513 3.85129v3.8513h-1.9256zm7.7026 3.8513h-3.8513v-3.8513c0-1.062.8636-1.9257 1.9256-1.9257s1.9257.8637 1.9257 1.9257zm6.7397 14.4422c0 1.5926-1.296 2.8885-2.8885 2.8885h-11.5538c-1.5925 0-2.8885-1.2959-2.8885-2.8885v-9.6281c0-1.5925 1.296-2.8885 2.8885-2.8885h11.5538c1.5925 0 2.8885 1.296 2.8885 2.8885z"/><path d="m59.6948 32.0782c0-3.8715-2.7787-24.29573-2.8971-25.16323l-.1137-.83284h-.8405c-4.7371 0-9.3278-1.69841-12.9239-4.78136l-1.5184-1.30077-1.5183 1.30077c-3.5962 3.08295-8.1869 4.78136-12.924 4.78136h-.8405l-.1136.83284c-.1002.73174-2.0942 15.38773-2.7142 22.27483h-18.4765c-2.6545 0-4.8141 2.1596-4.8141 4.8141v21.182c0 2.6545 2.1596 4.8141 4.8141 4.8141h36.5871c2.6545 0 4.8141-2.1596 4.8141-4.8141v-11.9861c8.9369-4.8315 13.4795-8.5739 13.4795-11.1216zm-33.068 4.8141h-3.5191v-1.9256h1.4625c.5382.6037 1.2218 1.2459 2.0566 1.9256zm14.7744 21.1821h-36.5871c-1.59251 0-2.88846-1.296-2.88846-2.8885v-21.182c0-1.5925 1.29595-2.8885 2.88846-2.8885h18.3282c-.0221.3832-.0346.7106-.0346.9628 0 .3033.0712.6259.1993.9629h-2.125v5.7769h8.0627c.9079.6171 1.9102 1.2584 3.0184 1.9256h-11.0811v5.7769h21.182v-1.9853c.6567-.0722 1.3018-.2243 1.9257-.44v11.0907c0 1.5925-1.296 2.8885-2.8885 2.8885zm-4.1555-14.5174c.9898.5276 2.0787.8559 3.1927.9782v.0597h-17.3307v-1.9256h12.5022c.5295.2917 1.0735.5873 1.6358.8877zm7.405-1.6994c-1.9901 1.062-4.5079 1.062-6.498 0-9.063-4.8353-13.1194-8.3958-13.1194-9.7794 0-3.3178 2.2414-20.1614 2.7691-24.0868 4.8959-.18968 9.6022-2.02962 13.334-5.22811l.2648-.22722.2648.22722c3.7319 3.19849 8.4381 5.03843 13.3341 5.22811.5276 3.9244 2.769 20.769 2.769 24.0868 0 1.3836-4.0563 4.9441-13.1184 9.7794z"/><path d="m3.85156 56.1485h11.55384v-5.7769h-11.55384zm1.92564-3.8513h7.7026v1.9257h-7.7026z"/><path d="m17.3308 56.1485h11.5538v-5.7769h-11.5538zm1.9256-3.8513h7.7026v1.9257h-7.7026z"/><path d="m30.8103 56.1485h11.5538v-5.7769h-11.5538zm1.9256-3.8513h7.7026v1.9257h-7.7026z"/></g></svg>