<svg fill="none" height="39" viewBox="0 0 60 39" width="60" xmlns="http://www.w3.org/2000/svg"><path d="m44.2771 28.979c.4016.0339.8032.0532 1.2068.0532 8.0042 0 14.5161-6.5119 14.5161-14.5161 0-8.00417-6.5119-14.5161-14.5161-14.5161s-14.5161 6.51193-14.5161 14.5161c0 3.3958 1.1642 6.5952 3.2632 9.1558zm1.2068-24.1403c5.3361 0 9.6774 4.34129 9.6774 9.6774 0 5.3361-4.3413 9.6774-9.6774 9.6774-1.0007 0-1.9974-.1577-2.9623-.4693l-2.938-1.5513c-2.402-1.8523-3.7771-4.6403-3.7771-7.6568 0-5.33611 4.3413-9.6774 9.6774-9.6774z" fill="#54a45b"/><g fill="#000"><path d="m44.5163 17.4196c-.5342 0-.9678-.4345-.9678-.9677h-1.9355c0 1.6006 1.3026 2.9032 2.9033 2.9032v1.9355h1.9354v-1.9355h2.9033v-2.9032c0-1.6007-1.3026-2.9033-2.9033-2.9033h-1.9354c-.5342 0-.9678-.4345-.9678-.9677v-.9677h2.9032c.5342 0 .9678.4345.9678.9677h1.9355c0-1.6007-1.3026-2.90323-2.9033-2.90323v-1.93548h-1.9354v1.93548h-2.9033v2.90323c0 1.6006 1.3026 2.9032 2.9033 2.9032h1.9354c.5342 0 .9678.4345.9678.9678v.9677z"/><path d="m45.4839 25.1614c5.8693 0 10.6451-4.7758 10.6451-10.6452 0-5.86931-4.7758-10.64511-10.6451-10.64511-5.8694 0-10.6452 4.7758-10.6452 10.64511 0 5.8694 4.7758 10.6452 10.6452 10.6452zm0-19.35482c4.8029 0 8.7097 3.90773 8.7097 8.70962 0 4.802-3.9068 8.7097-8.7097 8.7097s-8.7097-3.9077-8.7097-8.7097c0-4.80189 3.9068-8.70962 8.7097-8.70962z"/><path d="m7.74193 5.80664c-2.13483 0-3.87096 1.73613-3.87096 3.87096 0 2.1348 1.73613 3.871 3.87096 3.871 2.13484 0 3.87097-1.7362 3.87097-3.871 0-2.13483-1.73613-3.87096-3.87097-3.87096zm0 5.80646c-1.06741 0-1.93548-.8681-1.93548-1.9355 0-1.06741.86807-1.93548 1.93548-1.93548 1.06742 0 1.93549.86807 1.93549 1.93548 0 1.0674-.86807 1.9355-1.93549 1.9355z"/><path d="m29.9632 20.3226 1.8329-.9687c-.2197-.6203-.3871-1.26-.5207-1.9103l-3.3803 1.7864-4.2774-2.2596 7.4226-3.8884c.0822-.8342.2477-1.6413.4655-2.4281l-9.9649 5.22-6.5574-3.4645c.3291-.8719.5004-1.801.5004-2.73193 0-4.2687-3.4733-7.74192-7.74197-7.74192-4.26871 0-7.74193 3.47322-7.74193 7.74192 0 4.18643 3.34064 7.60843 7.49612 7.73803l5.54998 2.9071-5.54998 2.9071c-4.15548.1297-7.49612 3.5516-7.49612 7.7381 0 4.2687 3.47322 7.7419 7.74193 7.7419 4.26867 0 7.74197-3.4732 7.74197-7.7419 0-.931-.1713-1.86-.5004-2.732l6.5565-3.4635 26.609 13.9374h11.8509v-2.519zm-17.5413 7.0781.4529.8555c.4471.8458.6736 1.7574.6736 2.7116 0 3.2022-2.6042 5.8064-5.80647 5.8064-3.20226 0-5.80645-2.6042-5.80645-5.8064 0-3.2023 2.60419-5.8065 5.80645-5.8065h.23806l7.15161-3.7461 4.3287 2.2674zm36.2032 9.3735-40.64511-21.2903h-.23806c-3.20226 0-5.80645-2.6042-5.80645-5.80643 0-3.20225 2.60419-5.80644 5.80645-5.80644 3.20227 0 5.80647 2.60419 5.80647 5.80644 0 .95423-.2265 1.86583-.6736 2.71063l-.4529.8555 44.5384 23.5306z"/><path d="m7.74193 27.0967c-2.13483 0-3.87096 1.7361-3.87096 3.8709 0 2.1349 1.73613 3.871 3.87096 3.871 2.13484 0 3.87097-1.7361 3.87097-3.871 0-2.1348-1.73613-3.8709-3.87097-3.8709zm0 5.8064c-1.06741 0-1.93548-.868-1.93548-1.9355 0-1.0674.86807-1.9354 1.93548-1.9354 1.06742 0 1.93549.868 1.93549 1.9354 0 1.0675-.86807 1.9355-1.93549 1.9355z"/></g></svg>